<svg height="504pt" viewBox="0 0 504.1441 504" width="504pt" xmlns="http://www.w3.org/2000/svg"><path d="m78.683594 391.476562c64.945312 60.132813 132.980468 96.511719 202.21875 108.121094 15.929687 2.695313 32.058594 4.050782 48.214844 4.050782 5.675781 0 11.339843-.167969 16.996093-.503907 42.445313-3.015625 83.863281-14.429687 121.863281-33.578125l.3125-.167968c4.539063-2.476563 18.351563-10.011719 18.523438-22.179688.160156-11.589844-11.980469-18.65625-15.972656-20.980469-.277344-.160156-.5625-.304687-.855469-.433593-21.183594-9.273438-51.390625-8.707032-79.09375-6.496094-18.082031-28.902344-53.933594-46.5-84.925781-58.730469-13.917969-77.5625-55.050782-173.714844-130.007813-216.320313-3.410156-1.945312-7.035156-3.484374-10.804687-4.582031-2.785156-.949219-5.570313-1.75-8.238282-2.507812l-2.25-.648438c-20.382812-5.417969-41.976562-4.039062-61.503906 3.929688-.144531-.445313-.261718-.835938-.359375-1.144531-.46875-1.511719-.847656-2.667969-.859375-2.6875-1.46875-4.554688-2.851562-9.027344-4.089844-13.636719-2.242187-7.765625-3.78125-15.714844-4.601562-23.753907-1.816406-11.113281.28125-22.507812 5.929688-32.246093 6.34375-7.019531 14.085937-12.636719 22.722656-16.492188 11.265625-4.898437 17.941406-16.65625 16.367187-28.839843-1.851562-12.382813-11.367187-19.601563-28.378906-21.46875-5.953125-.492188-11.925781.691406-17.242187 3.410156-28.820313 13.265625-49.449219 39.648437-55.371094 70.816406-3.714844 20.105469-4.058594 45.074219 17.535156 90.933594-7.207031 5.894531-13.726562 12.578125-19.429688 19.933594-26.828124 32.738281-32.917968 77.796874-15.742187 116.480468 16.964844 34.109375 40.417969 64.585938 69.042969 89.722656zm-15.820313-227.347656c-22.445312-45.460937-22.433593-68.519531-19.144531-86.339844 4.890625-26.160156 22.261719-48.277343 46.519531-59.226562 2.121094-1.09375 4.46875-1.6875 6.855469-1.738281.359375 0 .71875.019531 1.066406.054687 12.632813 1.382813 13.203125 5.203125 13.523438 7.335938.34375 4.785156-2.429688 9.25-6.875 11.0625-10.917969 4.9375-20.671875 12.117187-28.628906 21.074218-.1875.21875-.363282.449219-.527344.683594-8.1875 13.011719-11.421875 28.535156-9.117188 43.738282.910156 9.003906 2.625 17.90625 5.121094 26.605468 1.292969 4.828125 2.757812 9.582032 4.453125 14.816406l.65625 2.082032c3.230469 10.378906 4.847656 15.59375 11.644531 15.59375 1.183594 0 2.355469-.25 3.433594-.734375 17.992188-9.0625 38.640625-11.363281 58.1875-6.484375l.1875.054687c-6.828125 15.953125-7.710938 37.914063 11.582031 65.125-17.699219-1.015625-34.363281-8.683593-46.648437-21.46875-4.367188-5.371093-10.542969-8.964843-17.371094-10.109375-3.316406-.203125-6.425781 1.621094-7.871094 4.613282-21.535156 43.511718-36.878906 56.171874-40.707031 55.363281-.089844-.023438-8.796875-4.425781-8.859375-52.699219 5.777344-7.132812 12.464844-13.476562 19.894531-18.871094 3.335938-2.394531 4.445313-6.851562 2.625-10.53125zm-38.144531 55.242188c2.378906 26.691406 9.015625 40.273437 20.640625 43.03125 1.261719.300781 2.550781.449218 3.847656.449218 14.714844 0 32.089844-19.128906 51.742188-56.992187.957031.859375 1.941406 1.78125 2.804687 2.601563 11.191406 10.542968 29.949219 28.179687 76.171875 26.414062 3.238281-.125 6.105469-2.117188 7.355469-5.109375 1.246094-2.988281.640625-6.429687-1.546875-8.816406-21.84375-23.8125-28.203125-44.4375-19.585937-62.855469.449218.226562.980468.441406 1.378906.679688 59.8125 34 106.824218 114.195312 122.695312 209.292968.488282 2.929688 2.488282 5.382813 5.261719 6.453125 30.890625 11.886719 68.292969 29.175781 83.402344 57.550781 1.605469 2.949219 4.792969 4.679688 8.140625 4.414063 25.203125-2.222656 56.527344-3.691406 75.785156 4.511719 6.316406 3.746094 7.152344 5.910156 7.214844 5.910156-.070313.210938-1.175782 3.042969-9.628906 7.675781-35.957032 18.121094-75.152344 28.933594-115.3125 31.8125-20.527344 1.203125-41.125.082031-61.398438-3.34375-65.960938-11.070312-131.097656-46.019531-193.597656-103.894531-27.027344-23.679688-49.191406-52.390625-65.257813-84.53125-10.933593-23.886719-10.972656-51.335938-.113281-75.253906zm0 0"/><path d="m157.550781 409.285156c3.773438 2.691406 9.015625 1.816406 11.707031-1.957031 2.695313-3.773437 1.820313-9.015625-1.953124-11.707031-25.894532-18.441406-49.886719-39.417969-71.625-62.617188-3.171876-3.308594-8.414063-3.460937-11.773438-.339844-3.359375 3.121094-3.589844 8.359376-.519531 11.765626 22.503906 24.03125 47.347656 45.753906 74.164062 64.855468zm0 0"/><path d="m205.3125 438.039062c19.128906 9.535157 39.226562 16.992188 59.945312 22.242188.667969.167969 1.351563.253906 2.039063.25 4.234375-.007812 7.796875-3.171875 8.308594-7.375.515625-4.203125-2.183594-8.128906-6.289063-9.160156-19.554687-4.960938-38.519531-12.003906-56.574218-21-4.140626-1.980469-9.109376-.261719-11.140626 3.855468-2.035156 4.117188-.382812 9.105469 3.707032 11.191407zm0 0"/><path d="m494.828125 69.273438c-4.304687.472656-8.476563.789062-12.554687 1.101562-25.582032 1.949219-49.742188 3.789062-76.292969 39.773438-15.425781 20.90625-33.890625 25.359374-46.074219 22.585937-8.425781-1.371094-15.171875-7.722656-17.046875-16.050781-2.417969-12.9375 8.457031-28.992188 29.082031-42.945313 2.585938-1.75 3.984375-4.785156 3.636719-7.886719-.347656-3.101562-2.386719-5.753906-5.296875-6.886718-59.59375-23.144532-114.390625-25.085938-154.320312-5.445313-26 12.40625-45.441407 35.355469-53.402344 63.039063l-.023438.039062v.035156l-.003906.015626-.027344.054687-.007812.046875-.042969.128906c-.03125.097656 0 .191406-.027344.289063-.238281.753906-.375 1.539062-.402343 2.332031.035156 3.980469 2.902343 7.375 6.824218 8.074219 4.570313 1.449219 8.984375 3.347656 13.179688 5.671875 6.5625 3.75 12.914062 7.867187 19.019531 12.328125.832031.589843 1.769531 1.023437 2.757813 1.277343.304687.066407.609374.113282.917968.144532.421875.097656.847656.164062 1.277344.199218.183594 0 .347656-.109374.527344-.121093.824218-.066407 1.632812-.257813 2.402344-.5625.347656-.097657.683593-.214844 1.011718-.359375 1.09375-.554688 2.042969-1.347656 2.789063-2.320313 5.894531-7.90625 14.894531-12.90625 24.71875-13.742187-8.191407 10.066406-14.941407 19.824218-14.617188 30.203125 0 .058593-.035156.105469-.035156.167969v.085937l.023437.117187c.003907.105469-.011718.207032-.007812.3125.367188 2.070313 1.277344 4.007813 2.636719 5.613282 1.023437 1.027344 2.015625 2.007812 3.25 3.414062 3.582031 3.582032 6.914062 7.175782 9.894531 10.667969 1.0625 1.253906 2.113281 2.523437 3.367188 4.152344 1.214843 2.09375 2.972656 3.820312 5.089843 4.996093 1.015625.507813 2.097657.863282 3.214844 1.054688l2.609375.527344c2.980469.691406 6.007812 1.171875 9.058594 1.433594 5.472656.398437 10.964844.425781 16.441406.078124 12.53125-1.484374 25.199219-1.351562 37.695312.402344 9.886719 1.878906 19.625 4.445313 29.152344 7.679688l1.429688.476562c12.261718 5.507813 26.019531 6.734375 39.0625 3.476563 6.089844-2.0625 11.808594-5.082031 16.949218-8.941407-1.417968 9.183594-5.84375 17.636719-12.582031 24.035157-13.132812 11.855469-37.050781 15.546875-71.066406 10.992187-8.054687-1.171875-16.257813.765625-22.933594 5.421875-2.382812 1.75-4.488281 3.851563-6.242187 6.226563-2.835938 3.066406-4.316406 7.144531-4.105469 11.3125.164063 1.113281.496094 2.195312.984375 3.210937 2.398438 5.234375 4.722656 10.507813 6.902344 15.839844 1.101562 2.699219 2.175781 5.410156 3.21875 8.148437.351562.925782.632812 1.871094.921875 2.816407.480469 1.585937.976562 3.167969 1.648437 4.796875.578125 1.4375 1.496094 2.710937 2.675782 3.71875 1.480468 1.121094 3.210937 1.863281 5.039062 2.175781 4.21875.578125 8.480469.726563 12.726562.445313 12.402344-1.074219 24.597657-3.835938 36.253907-8.210938-8.589844 21.6875-18.664063 29.722656-31.996094 34.691406l-3.6875.25c-2.472656.171875-4.742187 1.425782-6.203125 3.425782-1.460938 2.003906-1.964844 4.550781-1.371094 6.957031 4.621094 10.976562 12.320313 20.386719 22.164063 27.09375 1.105469.511719 2.308593.777343 3.523437.78125.160156 0 .324219-.003907.484375-.011719 40.320313-2.328125 90.574219-26.152344 105.621094-72.9375 8.746094-26.957031 8.953125-55.804688 9.15625-83.699219.046875-6.144531.089844-12.238281.226563-18.1875.855468-39.007812 18.074218-75.855469 47.445312-101.542969 2.648438-2.464843 3.417969-6.351562 1.910156-9.640624-1.507812-3.289063-4.953125-5.242188-8.550781-4.84375zm-57.578125 115.585937c-.144531 6.09375-.1875 12.277344-.234375 18.507813-.191406 26.621093-.398437 54.144531-8.347656 78.660156-11.75 36.558594-52.527344 58.128906-87.8125 61.136718-2.453125-2.308593-4.71875-4.804687-6.78125-7.46875 21.585937-9.46875 34.054687-26.96875 43.589843-60.378906.871094-3.050781-.054687-6.328125-2.386718-8.476562-2.335938-2.148438-5.679688-2.796875-8.648438-1.679688l-1.863281.707032c-14.632813 6.394531-30.121094 10.613281-45.976563 12.527343-1.722656.113281-3.453124.132813-5.179687.058594-.335937-1.09375-.683594-2.175781-1.089844-3.234375-1.085937-2.855469-2.207031-5.695312-3.359375-8.519531-1.898437-4.636719-3.894531-9.222657-5.972656-13.835938l.230469-.308593c.722656-.964844 1.582031-1.820313 2.554687-2.53125 3.183594-2.105469 7.039063-2.941407 10.808594-2.34375 39.671875 5.304687 67.34375.347656 84.546875-15.179688 13.894531-12.542969 20.257813-31.113281 19.464844-56.773438-.105469-3.347656-2.1875-6.3125-5.296875-7.542968-3.113282-1.234375-6.660156-.5-9.027344 1.867187l-.269531.285157c-.140625.125-.277344.253906-.40625.390624-6.859375 8.023438-15.535157 14.285157-25.308594 18.269532-9.640625 2-19.667969.785156-28.550781-3.457032l-1.464844-.488281c-10.277344-3.484375-20.785156-6.246093-31.449219-8.265625-13.882812-2.011718-27.96875-2.21875-41.90625-.609375-4.683593.285157-9.382812.257813-14.0625-.085937-2.273437-.214844-4.523437-.589844-6.742187-1.117188l-.875-.175781c-.207032-.304687-.417969-.589844-.621094-.839844-1.128906-1.398437-2.277344-2.789062-3.449219-4.167969-3.273437-3.839843-6.902343-7.761718-10.363281-11.183593-.355469-.421875-.734375-.839844-1.125-1.261719 3.660156-8.035156 8.660156-15.390625 14.792969-21.75 1.828125-2.191406 3.671875-4.410156 5.46875-6.644531 1.75-2.179688 2.300781-5.085938 1.46875-7.757813-.835938-2.667968-2.941407-4.746094-5.621094-5.542968-17.988281-5.859376-37.742187-1.246094-51.269531 11.972656-.472656-.316406-.992188-.59375-1.464844-.910156-4.152344-2.769532-8.414062-5.472657-12.839844-8.007813-2.78125-1.59375-5.660156-3.003906-8.625-4.214844-.160156-.070312-.316406-.148437-.476562-.214843l-.222656-.097657c7.75-20.042969 22.882812-36.355469 42.285156-45.59375 32.5625-16.023437 77.105468-15.628906 126.59375.886719-18.191406 15.90625-26.699219 33.730469-23.609375 50.292969 3.101562 14.894531 14.855469 26.464843 29.796875 29.332031 17.328125 3.964844 43.089844-1.542969 63.335937-28.980469 19.136719-25.933593 34.992188-30.3125 54.894531-32.242187-23.234374 27.054687-36.359374 61.332031-37.140624 96.988281zm0 0"/></svg>