<svg height="496pt" viewBox="0 -4 496 496" width="496pt" xmlns="http://www.w3.org/2000/svg"><path d="m88 280v-118.183594c23.425781-12.488281 40-42.640625 40-77.816406 0-46.320312-28.710938-84-64-84s-64 37.679688-64 84c0 35.199219 16.574219 65.328125 40 77.816406v118.183594c-4.417969 0-8 3.582031-8 8v184c0 4.417969 3.582031 8 8 8h48c4.417969 0 8-3.582031 8-8v-184c0-4.417969-3.582031-8-8-8zm-72-196c0-37.496094 21.527344-68 48-68s48 30.503906 48 68-21.527344 68-48 68-48-30.503906-48-68zm40 84h16v112h-16zm24 296h-32v-168h32zm0 0"/><path d="m488 8h-24c-4.417969 0-8 3.582031-8 8v64h-8v-64c0-4.417969-3.582031-8-8-8h-24c-4.417969 0-8 3.582031-8 8v64h-8v-64c0-4.417969-3.582031-8-8-8h-24c-4.417969 0-8 3.582031-8 8v72c-.910156 29.738281 14.410156 57.621094 40 72.800781v119.199219c-4.417969 0-8 3.582031-8 8v138.296875c-2.792969-1.699219-6.335938-1.527344-8.953125.429687-79.914063 60.363282-190.179687 60.363282-270.09375 0-3.535156-2.664062-8.5625-1.960937-11.230469 1.574219-2.664062 3.535157-1.960937 8.5625 1.574219 11.226563 85.371094 64.492187 203.121094 64.6875 288.703125.472656v32c0 4.417969 3.582031 8 8 8h48c4.417969 0 8-3.582031 8-8v-184c0-4.417969-3.582031-8-8-8v-115.542969c27.769531-10.058593 48-40.535156 48-76.457031v-72c0-4.417969-3.582031-8-8-8zm-48 456h-32v-168h32zm-8-296v112h-16v-112zm48-80c0 35.289062-23.328125 64-52 64s-52-28.710938-52-64v-64h8v64c0 4.417969 3.582031 8 8 8h24c4.417969 0 8-3.582031 8-8v-64h8v64c0 4.417969 3.582031 8 8 8h24c4.417969 0 8-3.582031 8-8v-64h8zm0 0"/><path d="m248 112c-75.109375 0-136 60.890625-136 136s60.890625 136 136 136 136-60.890625 136-136c-.082031-75.074219-60.925781-135.917969-136-136zm0 256c-66.273438 0-120-53.726562-120-120s53.726562-120 120-120 120 53.726562 120 120c-.074219 66.242188-53.757812 119.925781-120 120zm0 0"/><path d="m256 144c-4.417969 0-8 3.582031-8 8s3.582031 8 8 8c46.351562 0 80 37.007812 80 88 0 4.417969 3.582031 8 8 8s8-3.582031 8-8c0-60.257812-40.375-104-96-104zm0 0"/><path d="m235.039062 144.640625c-2.976562-1.253906-6.417968-.589844-8.71875 1.679687-1.460937 1.53125-2.289062 3.5625-2.320312 5.679688.011719 1.046875.230469 2.078125.640625 3.039062.40625.96875.976563 1.863282 1.679687 2.640626.777344.707031 1.671876 1.273437 2.640626 1.679687 1.9375.851563 4.140624.851563 6.078124 0 .96875-.40625 1.863282-.972656 2.640626-1.679687.703124-.777344 1.273437-1.671876 1.679687-2.640626.410156-.960937.628906-1.992187.640625-3.039062-.03125-2.117188-.859375-4.148438-2.320312-5.679688-.777344-.707031-1.671876-1.273437-2.640626-1.679687zm0 0"/><path d="m130.398438 56c1.429687-.003906 2.828124-.386719 4.058593-1.113281 63.640625-37.351563 141.574219-41.03125 208.453125-9.847657 4.003906 1.875 8.765625.152344 10.640625-3.847656s.152344-8.765625-3.847656-10.640625c-71.660156-33.4375-155.179687-29.5-223.375 10.539063-3.128906 1.824218-4.644531 5.523437-3.691406 9.019531.957031 3.492187 4.140625 5.910156 7.761719 5.890625zm0 0"/></svg>